<?xml version="1.0" encoding="UTF-8" standalone="no"?>
<svg
   width="119"
   height="24"
   viewBox="0 0 119 24"
   fill="none"
   version="1.1"
   id="svg170"
   sodipodi:docname="logo-full-dark.svg"
   inkscape:version="1.2.1 (9c6d41e, 2022-07-14)"
   xmlns:inkscape="http://www.inkscape.org/namespaces/inkscape"
   xmlns:sodipodi="http://sodipodi.sourceforge.net/DTD/sodipodi-0.dtd"
   xmlns="http://www.w3.org/2000/svg"
   xmlns:svg="http://www.w3.org/2000/svg">
  <defs
     id="defs174" />
  <sodipodi:namedview
     id="namedview172"
     pagecolor="#ffffff"
     bordercolor="#000000"
     borderopacity="0.25"
     inkscape:showpageshadow="2"
     inkscape:pageopacity="0.0"
     inkscape:pagecheckerboard="0"
     inkscape:deskcolor="#d1d1d1"
     showgrid="false"
     inkscape:zoom="9.8333333"
     inkscape:cx="57.610169"
     inkscape:cy="21.050847"
     inkscape:window-width="1465"
     inkscape:window-height="890"
     inkscape:window-x="0"
     inkscape:window-y="25"
     inkscape:window-maximized="0"
     inkscape:current-layer="svg170" />
  <g
     id="g136"
     style="display:inline">
    <path
       d="m 11.1887,4.41112 c 0.2295,0 0.4522,0.01009 0.675,0.027 0.7223,0.06089 1.4175,0.21991 2.0689,0.45671 1.6437,0.60213 3.0377,1.72185 3.9794,3.16629 C 17.5204,5.05723 15.6979,2.50325 13.1497,1.11971 11.8401,0.40595 10.3381,0 8.74168,0 7.39499,0 5.30235,0.284108 4.14805,0.801668 2.41996,1.42748 1.28931,2.44569 0,3.59921 L 5.34287,6.94479 C 6.80431,5.38196 8.88006,4.41112 11.1887,4.41112 Z"
       fill="#f47920"
       id="path132" />
    <path
       d="m 16.8143,11.9539 h -0.0034 c -0.162,0.0135 -0.324,0.0237 -0.4826,0.0305 h -0.0405 c -0.6716,0.0169 -1.3501,-0.0508 -2.0082,-0.203 -0.854,-0.1962 -1.6843,-0.5311 -2.4504,-1.0149 C 11.3229,10.4519 10.847,10.0731 10.4083,9.63337 10.2834,9.5116 10.1653,9.38301 10.0539,9.25447 9.23376,8.32083 8.6701,7.24849 8.35621,6.11865 7.44492,6.55164 6.62808,7.15376 5.9463,7.87766 5.15989,8.7132 4.55236,9.71796 4.1811,10.8309 4.10684,11.0575 4.03931,11.2909 3.98193,11.531 L 3.81993,12.4444 3.1753,16.1045 3.02344,16.957 3.58368,16.4767 4.52537,15.6648 4.3735,13.6216 C 4.33975,13.4153 4.32283,13.2055 4.32283,12.989 v -0.0203 l 5.46107,0.1218 c -0.88767,0.406 -2.45377,1.7726 -3.06468,2.4153 l -0.00675,0.0101 c -0.13839,0.1455 -0.26999,0.2944 -0.39825,0.45 l -0.46581,1.874 -0.05398,0.2165 h 0.00338 l -0.13159,0.5277 -0.02365,0.0981 -1.31974,5.3177 4.97836,-2.669 0.0473,-0.247 0.18903,-0.9945 c 0.02025,-0.0947 0.04048,-0.1759 0.06073,-0.2469 0.054,-0.203 0.08103,-0.301 0.11478,-0.3924 0.054,-0.1691 0.11476,-0.3349 0.17214,-0.4838 1.13743,-2.9666 2.56503,-3.6432 2.47053,-3.6432 0.0743,-0.0609 0.1553,-0.1184 0.2363,-0.1725 0.6919,-0.4838 1.5965,-0.8321 2.5753,-0.9674 0.1485,-0.0203 0.3172,-0.0373 0.4927,-0.0407 l 0.0473,-0.0034 0.9012,-1.0046 1.1914,-1.3328 -0.0642,0.0135 c -0.3071,0.0643 -0.6143,0.1116 -0.9214,0.1387 z"
       fill="#f47920"
       id="path134" />
  </g>
  <g
     id="g166"
     style="display:inline">
    <path
       d="m 27.6293,16.1229 c -0.1856,0.4972 -0.4826,0.8795 -0.9214,1.14 -0.4286,0.2571 -0.9214,0.3822 -1.475,0.3822 -0.5704,0 -1.0159,-0.115 -1.3399,-0.3619 -0.324,-0.2436 -0.4928,-0.575 -0.4928,-0.9945 0,-0.8728 0.6649,-1.3126 1.9981,-1.3126 h 2.231 z M 29.4755,9.5232 C 28.5474,8.69443 27.2142,8.2749 25.4794,8.2749 c -0.8944,0 -1.7754,0.11842 -2.6327,0.35521 -0.8505,0.24017 -1.5897,0.57505 -2.1972,1.00466 l 1.1644,2.27323 c 0.405,-0.318 0.8978,-0.5717 1.4749,-0.7645 0.5738,-0.1827 1.1578,-0.2774 1.7552,-0.2774 0.864,0 1.5053,0.1895 1.9306,0.5717 0.4387,0.3823 0.6547,0.9303 0.6547,1.6373 H 25.044 c -1.6336,0 -2.8487,0.3044 -3.6351,0.8964 -0.7864,0.5987 -1.1745,1.4275 -1.1745,2.4694 0,0.6495 0.1654,1.2381 0.5029,1.7455 0.3307,0.5175 0.8134,0.9235 1.4412,1.2178 0.6345,0.2841 1.3804,0.4364 2.2478,0.4364 1.664,0 2.798,-0.5244 3.4056,-1.5663 v 1.4004 h 3.041 v -6.4102 c 0,-1.6677 -0.4625,-2.9159 -1.3974,-3.7413 z"
       fill="#ffffff"
       id="path138"
       style="fill:#000000;fill-opacity:1" />
    <path
       d="m 56.2602,12.9842 c 0.1012,-1.1467 0.5231,-2.0601 1.2825,-2.7738 0.7459,-0.70702 1.6707,-1.05887 2.7777,-1.05887 1.1239,0 2.0555,0.35185 2.8149,1.05887 0.7493,0.7137 1.1746,1.6271 1.2725,2.7738 z m 9.6394,0.6732 c 0,-1.1332 -0.243,-2.1447 -0.7257,-3.0242 C 64.6913,9.74694 64.0332,9.05344 63.186,8.56294 62.3422,8.05891 61.3903,7.80859 60.3204,7.80859 c -1.0632,0 -2.0183,0.25032 -2.8689,0.75435 -0.8505,0.4905 -1.5255,1.18401 -2.0082,2.07706 -0.4894,0.893 -0.7324,1.9011 -0.7324,3.0174 0,1.1264 0.2498,2.1379 0.7662,3.0309 0.5063,0.8795 1.2151,1.5832 2.123,2.0838 0.9147,0.5108 1.9576,0.7612 3.1389,0.7612 0.9147,0 1.7551,-0.1591 2.5212,-0.4838 0.7662,-0.318 1.4075,-0.7848 1.9137,-1.4038 l -0.8708,-1.0115 c -0.4354,0.504 -0.9585,0.8795 -1.5525,1.1366 -0.5974,0.2537 -1.2556,0.3856 -1.9711,0.3856 -1.2623,0 -2.312,-0.3754 -3.1457,-1.1095 -0.8235,-0.7374 -1.2791,-1.7016 -1.3736,-2.9058 h 9.6124 z"
       fill="#ffffff"
       id="path140"
       style="fill:#000000;fill-opacity:1" />
    <path
       d="m 74.6938,14.4929 c -0.3915,-0.4262 -0.8641,-0.7171 -1.4142,-0.893 -0.5603,-0.1759 -1.2894,-0.3518 -2.204,-0.5243 -0.7527,-0.132 -1.3332,-0.2673 -1.7483,-0.3857 -0.4253,-0.1252 -0.7831,-0.3146 -1.0666,-0.5818 -0.2835,-0.2707 -0.4252,-0.619 -0.4252,-1.052 0,-0.5683 0.2497,-1.025 0.7594,-1.37684 0.4995,-0.34842 1.2454,-0.52773 2.2377,-0.52773 1.3062,0 2.4402,0.3248 3.3853,0.98787 l 0.6784,-1.25173 c -0.4861,-0.31798 -1.0936,-0.575 -1.8327,-0.77458 -0.7493,-0.20296 -1.4919,-0.3045 -2.231,-0.3045 -1.4345,0 -2.5483,0.31121 -3.3482,0.92687 -0.7999,0.6089 -1.1948,1.40384 -1.1948,2.36114 0,0.7747 0.1992,1.3836 0.5974,1.82 0.3983,0.4431 0.881,0.7476 1.448,0.9336 0.5738,0.1827 1.323,0.3585 2.2579,0.5344 0.6987,0.1184 1.2556,0.2335 1.6775,0.3586 0.4286,0.1252 0.7763,0.3079 1.0497,0.5481 0.2768,0.2435 0.4151,0.5784 0.4151,0.9945 0,0.6021 -0.2497,1.0689 -0.7526,1.3936 -0.5029,0.3248 -1.2759,0.4906 -2.3256,0.4906 -0.7897,0 -1.5491,-0.115 -2.2714,-0.3586 -0.7324,-0.2436 -1.3298,-0.548 -1.8124,-0.9336 l -0.7021,1.2279 c 0.4826,0.4093 1.1509,0.7509 1.9981,1.0182 0.8505,0.274 1.7484,0.4094 2.6799,0.4094 1.4817,0 2.6461,-0.3045 3.4831,-0.8864 0.837,-0.592 1.2556,-1.3903 1.2556,-2.4018 0,-0.7408 -0.1923,-1.326 -0.594,-1.7522 z"
       fill="#ffffff"
       id="path142"
       style="fill:#000000;fill-opacity:1" />
    <path
       d="m 86.2877,16.005 c -0.378,0.6901 -0.8843,1.2178 -1.5425,1.5899 -0.6581,0.3687 -1.3804,0.5616 -2.1871,0.5616 -0.8202,0 -1.5526,-0.1929 -2.1905,-0.5616 -0.648,-0.3721 -1.1643,-0.8998 -1.5322,-1.5899 -0.3747,-0.6867 -0.557,-1.4681 -0.557,-2.3476 0,-0.8728 0.1823,-1.6474 0.557,-2.3273 0.3679,-0.6833 0.8842,-1.2077 1.5322,-1.58997 0.6379,-0.37887 1.3703,-0.56828 2.1905,-0.56828 0.8067,0 1.529,0.18941 2.1871,0.56828 0.6582,0.38227 1.1645,0.90667 1.5425,1.58997 0.3712,0.6799 0.5536,1.4545 0.5536,2.3273 0,0.8795 -0.1824,1.6609 -0.5536,2.3476 z m 1.3602,-5.3921 C 87.1585,9.72663 86.4665,9.03659 85.5958,8.54271 84.7216,8.05897 83.7462,7.80859 82.6695,7.80859 c -0.9619,0 -1.8293,0.20976 -2.5955,0.61907 -0.756,0.40932 -1.3703,0.99451 -1.8394,1.75224 V 7.90332 H 76.7461 V 23.6703 h 1.556 v -6.4137 c 0.4725,0.7408 1.0935,1.3091 1.8394,1.6914 0.7594,0.3924 1.5965,0.5853 2.528,0.5853 1.0936,0 2.0757,-0.2437 2.9398,-0.7342 0.8674,-0.4905 1.5492,-1.1771 2.0386,-2.0702 0.5029,-0.893 0.7459,-1.9112 0.7459,-3.0715 0,-1.1332 -0.243,-2.1514 -0.7459,-3.0445 z"
       fill="#ffffff"
       id="path144"
       style="fill:#000000;fill-opacity:1" />
    <path
       d="m 90.7406,12.9842 c 0.108,-1.1467 0.53,-2.0601 1.2826,-2.7738 0.7459,-0.70702 1.6808,-1.05887 2.7845,-1.05887 1.1172,0 2.0588,0.35185 2.8081,1.05887 0.7493,0.7137 1.1746,1.6271 1.2724,2.7738 z m 9.6394,0.6732 c 0,-1.1332 -0.243,-2.1447 -0.7256,-3.0242 C 99.1785,9.74694 98.5136,9.05344 97.6665,8.56294 96.8227,8.05891 95.8641,7.80859 94.8077,7.80859 c -1.0632,0 -2.0217,0.25032 -2.879,0.75435 -0.8505,0.4905 -1.5222,1.18401 -2.0048,2.07706 -0.4894,0.893 -0.7325,1.9011 -0.7325,3.0174 0,1.1264 0.2565,2.1379 0.7662,3.0309 0.5062,0.8795 1.2151,1.5832 2.1297,2.0838 0.9079,0.5108 1.9576,0.7612 3.1288,0.7612 0.9248,0 1.7652,-0.1591 2.5314,-0.4838 0.7661,-0.318 1.3973,-0.7848 1.9069,-1.4038 l -0.8741,-1.0115 c -0.432,0.504 -0.9485,0.8795 -1.5492,1.1366 -0.6008,0.2537 -1.2556,0.3856 -1.961,0.3856 -1.2758,0 -2.3255,-0.3754 -3.149,-1.1095 -0.8303,-0.7374 -1.2893,-1.7016 -1.3805,-2.9058 h 9.6124 z"
       fill="#ffffff"
       id="path146"
       style="fill:#000000;fill-opacity:1" />
    <path
       d="m 110.268,16.4583 1.157,0.7916 c -0.455,0.7442 -1.073,1.3124 -1.856,1.6947 -0.79,0.3924 -1.674,0.5853 -2.646,0.5853 -1.141,0 -2.157,-0.2504 -3.048,-0.7443 -0.898,-0.5007 -1.596,-1.1941 -2.113,-2.0939 -0.509,-0.8998 -0.766,-1.9113 -0.766,-3.0377 0,-1.1163 0.257,-2.1277 0.766,-3.0174 0.517,-0.89304 1.215,-1.58655 2.113,-2.08043 0.891,-0.49727 1.907,-0.74758 3.048,-0.74758 0.989,0 1.873,0.19958 2.656,0.58183 0.783,0.38563 1.391,0.95055 1.846,1.69478 l -1.157,0.7916 c -0.382,-0.5683 -0.864,-0.99119 -1.448,-1.28549 -0.581,-0.28415 -1.215,-0.42284 -1.897,-0.42284 -0.834,0 -1.583,0.18263 -2.238,0.55812 -0.668,0.37551 -1.185,0.89991 -1.559,1.58321 -0.365,0.6934 -0.547,1.4681 -0.547,2.3442 0,0.893 0.182,1.6778 0.547,2.3611 0.374,0.6766 0.891,1.2009 1.559,1.5764 0.655,0.3687 1.404,0.5616 2.238,0.5616 0.682,0 1.316,-0.1421 1.897,-0.4195 0.584,-0.2841 1.066,-0.7002 1.448,-1.2753 z"
       fill="#ffffff"
       id="path148"
       style="fill:#000000;fill-opacity:1" />
    <path
       d="m 118.445,17.6418 c -0.216,0.1928 -0.476,0.3349 -0.773,0.433 -0.301,0.1116 -0.608,0.1589 -0.932,0.1589 -0.644,0 -1.134,-0.186 -1.475,-0.5412 -0.341,-0.3518 -0.516,-0.8761 -0.516,-1.5628 V 9.25599 h 3.497 V 7.94005 h -3.497 V 5.41992 h -1.546 V 16.2142 c 0,1.0656 0.29,1.8944 0.871,2.4762 0.584,0.5886 1.414,0.8796 2.491,0.8796 0.466,0 0.914,-0.0677 1.346,-0.2098 0.426,-0.1421 0.79,-0.3417 1.084,-0.5987 z"
       fill="#ffffff"
       id="path150"
       style="fill:#000000;fill-opacity:1" />
    <path
       d="m 27.6293,16.1229 c -0.1856,0.4972 -0.4826,0.8795 -0.9214,1.14 -0.4286,0.2571 -0.9214,0.3822 -1.475,0.3822 -0.5704,0 -1.0159,-0.115 -1.3399,-0.3619 -0.324,-0.2436 -0.4928,-0.575 -0.4928,-0.9945 0,-0.8728 0.6649,-1.3126 1.9981,-1.3126 h 2.231 z M 29.4755,9.5232 C 28.5474,8.69443 27.2142,8.2749 25.4794,8.2749 c -0.8944,0 -1.7754,0.11842 -2.6327,0.35521 -0.8505,0.24017 -1.5897,0.57505 -2.1972,1.00466 l 1.1644,2.27323 c 0.405,-0.318 0.8978,-0.5717 1.4749,-0.7645 0.5738,-0.1827 1.1578,-0.2774 1.7552,-0.2774 0.864,0 1.5053,0.1895 1.9306,0.5717 0.4387,0.3823 0.6547,0.9303 0.6547,1.6373 H 25.044 c -1.6336,0 -2.8487,0.3044 -3.6351,0.8964 -0.7864,0.5987 -1.1745,1.4275 -1.1745,2.4694 0,0.6495 0.1654,1.2381 0.5029,1.7455 0.3307,0.5175 0.8134,0.9235 1.4412,1.2178 0.6345,0.2841 1.3804,0.4364 2.2478,0.4364 1.664,0 2.798,-0.5244 3.4056,-1.5663 v 1.4004 h 3.041 v -6.4102 c 0,-1.6677 -0.4625,-2.9159 -1.3974,-3.7413 z"
       fill="#ffffff"
       id="path152"
       style="fill:#000000;fill-opacity:1" />
    <path
       d="m 47.721,13.2272 h -4.0738 v -7.689 h 4.0738 c 1.5155,0 2.6732,0.3315 3.4697,1.00128 0.7999,0.65964 1.1981,1.60678 1.1981,2.85163 0,1.21779 -0.3982,2.15489 -1.1981,2.83139 -0.7965,0.6664 -1.9542,1.0047 -3.4697,1.0047 z m -7.9451,3.0884 c -0.54,0.5615 -1.2218,0.8491 -2.0386,0.8491 -0.8337,0 -1.5188,-0.2876 -2.0588,-0.8491 -0.5502,-0.5582 -0.8203,-1.3091 -0.8203,-2.2597 0,-0.9437 0.2701,-1.6981 0.8203,-2.263 0.54,-0.5649 1.2251,-0.8491 2.0588,-0.8491 0.8168,0 1.4986,0.2842 2.0386,0.8491 0.54,0.5649 0.8066,1.3193 0.8066,2.263 0,0.9506 -0.2666,1.7015 -0.8066,2.2597 z M 50.519,14.2149 c 1.1139,-0.3653 1.9779,-0.9607 2.5854,-1.7861 0.6008,-0.8288 0.9079,-1.8334 0.9079,-3.03769 0,-1.63386 -0.5569,-2.91927 -1.6639,-3.85291 C 51.2379,4.60456 49.709,4.1377 47.7615,4.1377 L 40.5218,4.18849 V 9.63128 C 39.7185,8.7247 38.6013,8.2714 37.1736,8.2714 c -1.0564,0 -2.0149,0.24022 -2.8621,0.71719 -0.8573,0.46682 -1.5222,1.14001 -2.015,2.01951 -0.486,0.8795 -0.7223,1.8909 -0.7223,3.0478 0,1.1536 0.2363,2.1718 0.7223,3.0445 0.4928,0.8761 1.1577,1.5527 2.015,2.0229 0.8472,0.477 1.8057,0.7138 2.8621,0.7138 1.5222,0 2.69,-0.4838 3.4967,-1.4614 v 1.2955 h 3.1018 v -5.0673 h 3.9894 c 0.4253,0 0.8303,-0.0203 1.2252,-0.0643 l 3.4933,4.9287 h 1.7753 z"
       fill="#ffffff"
       id="path154"
       style="fill:#000000;fill-opacity:1" />
    <path
       d="m 56.2602,12.9842 c 0.1012,-1.1467 0.5231,-2.0601 1.2825,-2.7738 0.7459,-0.70702 1.6707,-1.05887 2.7777,-1.05887 1.1239,0 2.0555,0.35185 2.8149,1.05887 0.7493,0.7137 1.1746,1.6271 1.2725,2.7738 z m 9.6394,0.6732 c 0,-1.1332 -0.243,-2.1447 -0.7257,-3.0242 C 64.6913,9.74694 64.0332,9.05344 63.186,8.56294 62.3422,8.05891 61.3903,7.80859 60.3204,7.80859 c -1.0632,0 -2.0183,0.25032 -2.8689,0.75435 -0.8505,0.4905 -1.5255,1.18401 -2.0082,2.07706 -0.4894,0.893 -0.7324,1.9011 -0.7324,3.0174 0,1.1264 0.2498,2.1379 0.7662,3.0309 0.5063,0.8795 1.2151,1.5832 2.123,2.0838 0.9147,0.5108 1.9576,0.7612 3.1389,0.7612 0.9147,0 1.7551,-0.1591 2.5212,-0.4838 0.7662,-0.318 1.4075,-0.7848 1.9137,-1.4038 l -0.8708,-1.0115 c -0.4354,0.504 -0.9585,0.8795 -1.5525,1.1366 -0.5974,0.2537 -1.2556,0.3856 -1.9711,0.3856 -1.2623,0 -2.312,-0.3754 -3.1457,-1.1095 -0.8235,-0.7374 -1.2791,-1.7016 -1.3736,-2.9058 h 9.6124 z"
       fill="#ffffff"
       id="path156"
       style="fill:#000000;fill-opacity:1" />
    <path
       d="m 74.6938,14.4895 c 0.4017,0.4262 0.5907,1.0081 0.5907,1.7523 0,1.008 -0.4153,1.8098 -1.2557,2.4017 -0.8336,0.5853 -1.998,0.8864 -3.4797,0.8864 -0.9315,0 -1.8294,-0.1354 -2.6799,-0.4094 -0.8506,-0.2673 -1.5155,-0.6089 -1.9981,-1.0182 l 0.6987,-1.2279 c 0.4826,0.3856 1.0834,0.6934 1.8158,0.937 0.7223,0.2402 1.4817,0.3586 2.2714,0.3586 1.0497,0 1.8227,-0.1692 2.3222,-0.494 0.5097,-0.3247 0.7594,-0.7915 0.7594,-1.3936 0,-0.4161 -0.1417,-0.751 -0.4185,-0.9911 -0.2734,-0.2436 -0.6244,-0.4263 -1.0463,-0.5515 -0.4253,-0.1251 -0.9822,-0.2435 -1.6842,-0.3586 -0.9316,-0.1759 -1.6808,-0.3517 -2.2546,-0.5344 -0.567,-0.1826 -1.0497,-0.4905 -1.448,-0.9336 -0.3982,-0.433 -0.6008,-1.0419 -0.6008,-1.82 0,-0.9573 0.4017,-1.75223 1.2016,-2.36112 0.7965,-0.61566 1.9137,-0.92349 3.3448,-0.92349 0.7391,0 1.4817,0.09815 2.231,0.29773 0.7425,0.20296 1.3466,0.45999 1.8327,0.77796 L 74.2212,10.136 C 73.2728,9.47633 72.1388,9.15153 70.8326,9.15153 c -0.989,0 -1.7382,0.17254 -2.2377,0.52435 -0.5097,0.35182 -0.7594,0.80852 -0.7594,1.37682 0,0.433 0.1417,0.7847 0.4252,1.052 0.2835,0.2672 0.6413,0.4566 1.0666,0.5818 0.4151,0.1184 0.999,0.2504 1.7483,0.3857 0.9146,0.1759 1.6471,0.3484 2.204,0.5243 0.5501,0.1759 1.0227,0.4668 1.4142,0.893 z"
       fill="#ffffff"
       id="path158"
       style="fill:#000000;fill-opacity:1" />
    <path
       d="m 86.2877,16.005 c -0.378,0.6901 -0.8843,1.2178 -1.5425,1.5899 -0.6581,0.3687 -1.3804,0.5616 -2.1871,0.5616 -0.8202,0 -1.5526,-0.1929 -2.1905,-0.5616 -0.648,-0.3721 -1.1643,-0.8998 -1.5322,-1.5899 -0.3747,-0.6867 -0.557,-1.4681 -0.557,-2.3476 0,-0.8728 0.1823,-1.6474 0.557,-2.3273 0.3679,-0.6833 0.8842,-1.2077 1.5322,-1.58997 0.6379,-0.37887 1.3703,-0.56828 2.1905,-0.56828 0.8067,0 1.529,0.18941 2.1871,0.56828 0.6582,0.38227 1.1645,0.90667 1.5425,1.58997 0.3712,0.6799 0.5536,1.4545 0.5536,2.3273 0,0.8795 -0.1824,1.6609 -0.5536,2.3476 z m 1.3602,-5.3921 C 87.1585,9.72663 86.4665,9.03659 85.5958,8.54271 84.7216,8.05897 83.7462,7.80859 82.6695,7.80859 c -0.9619,0 -1.8293,0.20976 -2.5955,0.61907 -0.756,0.40932 -1.3703,0.99451 -1.8394,1.75224 V 7.90332 H 76.7461 V 23.6703 h 1.556 v -6.4137 c 0.4725,0.7408 1.0935,1.3091 1.8394,1.6914 0.7594,0.3924 1.5965,0.5853 2.528,0.5853 1.0936,0 2.0757,-0.2437 2.9398,-0.7342 0.8674,-0.4905 1.5492,-1.1771 2.0386,-2.0702 0.5029,-0.893 0.7459,-1.9112 0.7459,-3.0715 0,-1.1332 -0.243,-2.1514 -0.7459,-3.0445 z"
       fill="#ffffff"
       id="path160"
       style="fill:#000000;fill-opacity:1" />
    <path
       d="m 90.7406,12.9842 c 0.108,-1.1467 0.53,-2.0601 1.2826,-2.7738 0.7459,-0.70702 1.6808,-1.05887 2.7845,-1.05887 1.1172,0 2.0588,0.35185 2.8081,1.05887 0.7493,0.7137 1.1746,1.6271 1.2724,2.7738 z m 9.6394,0.6732 c 0,-1.1332 -0.243,-2.1447 -0.7256,-3.0242 C 99.1785,9.74694 98.5136,9.05344 97.6665,8.56294 96.8227,8.05891 95.8641,7.80859 94.8077,7.80859 c -1.0632,0 -2.0217,0.25032 -2.879,0.75435 -0.8505,0.4905 -1.5222,1.18401 -2.0048,2.07706 -0.4894,0.893 -0.7325,1.9011 -0.7325,3.0174 0,1.1264 0.2565,2.1379 0.7662,3.0309 0.5062,0.8795 1.2151,1.5832 2.1297,2.0838 0.9079,0.5108 1.9576,0.7612 3.1288,0.7612 0.9248,0 1.7652,-0.1591 2.5314,-0.4838 0.7661,-0.318 1.3973,-0.7848 1.9069,-1.4038 l -0.8741,-1.0115 c -0.432,0.504 -0.9485,0.8795 -1.5492,1.1366 -0.6008,0.2537 -1.2556,0.3856 -1.961,0.3856 -1.2758,0 -2.3255,-0.3754 -3.149,-1.1095 -0.8303,-0.7374 -1.2893,-1.7016 -1.3805,-2.9058 h 9.6124 z"
       fill="#ffffff"
       id="path162"
       style="fill:#000000;fill-opacity:1" />
    <path
       d="m 118.998,18.7581 c -0.29,0.2604 -0.658,0.46 -1.083,0.6021 -0.432,0.1421 -0.881,0.2098 -1.347,0.2098 -1.073,0 -1.907,-0.2943 -2.491,-0.8762 -0.58,-0.5852 -0.874,-1.4106 -0.874,-2.4796 V 5.41992 h 1.549 v 2.52013 h 3.497 v 1.31594 h -3.497 v 6.87711 c 0,0.6833 0.176,1.2076 0.517,1.5594 0.341,0.3586 0.833,0.5412 1.475,0.5412 0.324,0 0.631,-0.0507 0.931,-0.1589 0.301,-0.0981 0.557,-0.2402 0.773,-0.433 z"
       fill="#ffffff"
       id="path164"
       style="fill:#000000;fill-opacity:1" />
  </g>
  <rect
     width="119"
     height="24"
     fill="#000000"
     fill-opacity="0"
     id="rect168"
     x="0"
     y="0"
     style="display:inline" />
</svg>
